<?xml version="1.0" encoding="UTF-8" standalone="no"?>
<!-- Uploaded to: SVG Repo, www.svgrepo.com, Generator: SVG Repo Mixer Tools -->

<svg
   fill="#000000"
   width="800px"
   height="800px"
   viewBox="0 0 24 24"
   role="img"
   version="1.1"
   id="svg1"
   sodipodi:docname="tray.svg"
   inkscape:version="1.4.3 (0d15f75042, 2025-12-25)"
   xmlns:inkscape="http://www.inkscape.org/namespaces/inkscape"
   xmlns:sodipodi="http://sodipodi.sourceforge.net/DTD/sodipodi-0.dtd"
   xmlns="http://www.w3.org/2000/svg"
   xmlns:svg="http://www.w3.org/2000/svg">
  <defs
     id="defs1" />
  <sodipodi:namedview
     id="namedview1"
     pagecolor="#ffffff"
     bordercolor="#000000"
     borderopacity="0.25"
     inkscape:showpageshadow="2"
     inkscape:pageopacity="0.0"
     inkscape:pagecheckerboard="0"
     inkscape:deskcolor="#d1d1d1"
     inkscape:zoom="1.37125"
     inkscape:cx="400"
     inkscape:cy="400"
     inkscape:window-width="3440"
     inkscape:window-height="1348"
     inkscape:window-x="0"
     inkscape:window-y="0"
     inkscape:window-maximized="1"
     inkscape:current-layer="svg1" />
  <path
     style="fill:#f9f9f9;stroke:#000000;stroke-width:0.2199;stroke-dasharray:none;stroke-opacity:1;paint-order:markers stroke fill"
     d="m 10.595579,18.784578 h 2.811838 v 2.932824 h -2.81079 z"
     id="path3" />
  <path
     style="fill:#f9f9f9;stroke:#000000;stroke-opacity:1;stroke-width:0.21099;stroke-dasharray:none;paint-order:markers stroke fill"
     d="m 24,21.653 c 0,0 -3.154,-0.355 -5.61,-2.384 -2.342,-1.93 -3.187,-3.592 -3.772,-5.476 C 14.035,11.908 13.947,7.374 13.947,6.029 V 2.346 H 15.4 l 10e-4,1.365 c 0.024,2.041 0.202,5.918 1.138,8.444 2.258,6.087 7.46,6.62 7.46,6.62 z"
     id="path2" />
  <path
     style="fill:#f9f9f9;stroke:#000000;stroke-opacity:1;stroke-width:0.21099;stroke-dasharray:none;paint-order:markers stroke fill"
     d="m 0,21.653 c 0,0 3.154,-0.355 5.612,-2.384 2.339,-1.93 3.185,-3.592 3.77,-5.476 0.584,-1.885 0.671,-6.419 0.671,-7.764 V 2.346 H 8.598 V 3.711 C 8.574,5.752 8.398,9.629 7.463,12.155 5.203,18.242 0,18.775 0,18.775 Z"
     id="path1" />
  <path
     style="fill:#f9f9f9;stroke:#000000;stroke-width:0.2199;stroke-dasharray:none;stroke-opacity:1;paint-order:markers stroke fill"
     d="m 10.64635,2.3353509 h 2.710299 V 17.149659 H 10.64736 Z"
     id="path4" />
</svg>
